<svg version="1.1" id="Layer_1" xmlns="http://www.w3.org/2000/svg" xmlns:xlink="http://www.w3.org/1999/xlink" x="0px" y="0px"
	 width="100%" viewBox="0 0 800 800" enable-background="new 0 0 800 800" xml:space="preserve">
<path fill="#000000" opacity="1.000000" stroke="none" 
	d="
M426.637390,449.637268 
	C433.444092,443.400146 438.912262,436.506927 443.916473,429.195923 
	C445.424744,426.992340 445.743866,425.164917 444.219757,422.855377 
	C429.199615,400.094666 412.326019,378.889313 391.514587,361.117035 
	C383.616486,354.372253 380.537109,353.686981 379.867432,364.880768 
	C379.777832,366.377899 379.692230,368.296417 377.847717,369.278046 
	C375.468719,369.483704 374.966827,367.354889 374.084961,365.923798 
	C369.450714,358.402863 365.454193,350.533997 361.522003,342.627380 
	C360.316010,340.202362 360.258392,337.780457 360.836365,335.341522 
	C361.601654,332.111969 362.526642,328.902649 363.641418,325.776794 
	C367.205688,315.782349 367.325623,315.673706 376.661346,321.188446 
	C400.620392,335.341370 419.042419,355.402344 435.874451,377.119171 
	C442.909485,386.195831 448.953552,395.933716 454.953064,406.894958 
	C458.808594,400.175293 459.951477,393.504150 461.512665,387.040100 
	C463.448334,379.025421 462.806335,370.815430 462.596039,362.671143 
	C462.468964,357.749542 459.555878,354.493835 455.754639,351.669983 
	C447.090088,345.233154 445.935638,341.347351 449.212219,331.125641 
	C451.962982,322.544189 455.349487,314.224548 459.709930,306.329590 
	C460.618866,304.683777 461.470428,302.105499 464.041412,303.351746 
	C466.990723,304.781464 464.686951,306.770111 463.907043,308.355774 
	C458.810364,318.718109 459.963654,323.778168 469.195068,330.726227 
	C474.138458,334.446930 479.508392,337.503357 485.077271,340.134338 
	C488.289001,341.651672 489.268066,343.345551 487.710175,346.713989 
	C485.895996,350.636597 484.226624,354.670563 482.990051,358.804443 
	C481.518982,363.722260 479.543213,366.930450 473.740936,363.153168 
	C470.570343,369.354004 470.638916,375.769653 469.449738,381.844513 
	C467.337738,392.633728 465.428650,403.456604 460.469543,413.416107 
	C459.477478,415.408447 459.623901,417.172089 460.633667,419.082672 
	C469.949829,436.710571 468.188263,455.149017 464.242493,473.609222 
	C461.979919,484.194763 459.425629,486.227905 448.569519,487.482086 
	C436.627106,488.861816 424.646149,489.365784 412.876343,486.278992 
	C402.118896,483.457733 396.930786,476.349243 396.632080,465.202820 
	C396.461060,458.821899 396.976471,452.564117 398.829285,446.455231 
	C399.378113,444.645660 399.544250,441.924835 402.282196,442.414520 
	C405.213928,442.938934 403.404144,445.358185 403.341187,446.946320 
	C403.164062,451.411072 403.112366,455.677612 408.112793,457.956696 
	C411.074738,459.306641 413.567444,459.513519 416.437164,457.403320 
	C419.787567,454.939728 423.336060,452.750031 426.637390,449.637268 
M453.600708,443.903412 
	C452.404175,441.627960 452.051727,438.853119 449.377167,436.845490 
	C444.219543,446.096802 436.263458,452.880188 428.909332,461.529114 
	C438.616852,463.098236 447.107666,463.546844 455.622406,461.610016 
	C458.220612,461.019043 459.147034,459.484436 458.143036,456.804596 
	C456.632233,452.772034 455.301605,448.671936 453.600708,443.903412 
z"/>
<path fill="#000000" opacity="1.000000" stroke="none" 
	d="
M260.792328,520.263672 
	C264.681122,526.450317 267.081055,533.156006 272.786163,537.733521 
	C275.313049,539.760986 274.348297,543.512695 276.091919,546.328613 
	C289.360077,567.755859 303.992432,588.191345 319.575958,607.979736 
	C321.935760,610.976318 324.558502,611.734802 328.156647,611.696228 
	C333.238098,611.641663 337.222961,614.929932 338.164734,619.169128 
	C339.405243,624.753052 337.100006,630.041382 332.427338,632.330872 
	C327.915222,634.541748 322.482544,633.449707 319.191589,629.726868 
	C316.648315,626.849731 315.851532,623.277222 316.893097,619.906189 
	C318.030853,616.223877 316.548950,613.934509 314.524048,611.387024 
	C297.292572,589.708435 281.638916,566.943176 267.212128,543.300842 
	C249.184387,513.757446 233.605423,482.983856 219.964890,451.200989 
	C200.652756,406.203033 186.488434,359.641296 178.025223,311.412445 
	C172.665039,280.866608 169.837875,250.051575 170.883652,219.004456 
	C171.748886,193.316635 175.203430,168.015457 182.635330,143.281204 
	C190.568573,116.878403 203.200439,93.261070 223.269669,74.198425 
	C241.819138,56.579342 264.049469,46.377544 289.639252,43.612762 
	C328.743073,39.387882 364.068085,51.256500 397.673004,69.435974 
	C438.886963,91.731735 473.542236,122.288071 504.872437,156.820160 
	C506.200684,158.284164 507.565491,159.714996 508.848083,161.091324 
	C512.736145,160.472931 514.294128,156.276611 518.647583,155.966644 
	C520.615601,164.735199 522.460266,173.472885 523.428223,183.200134 
	C513.892517,180.479065 505.467010,177.382950 496.783813,173.919998 
	C497.546295,172.643600 497.780823,172.003571 498.215790,171.560135 
	C504.225555,165.433121 504.370300,165.311905 498.663055,159.152390 
	C463.871796,121.603912 425.658936,88.426590 378.707214,66.695267 
	C360.495636,58.266159 341.494568,51.796886 321.486023,49.628311 
	C275.730194,44.669186 235.740341,59.331272 207.250702,103.506691 
	C202.356262,111.095917 198.384186,119.150894 194.831787,127.429901 
	C193.936096,129.517365 192.680893,131.249268 195.328339,133.500275 
	C197.342514,135.212845 196.845886,138.153549 193.797226,138.855103 
	C190.420746,139.632080 189.399750,141.839508 188.520050,144.703033 
	C183.124832,162.264999 179.923813,180.201721 178.158478,198.494186 
	C175.828751,222.634750 176.337418,246.750702 178.477463,270.796509 
	C181.627930,306.195862 188.837524,340.866547 198.905197,374.960754 
	C213.881744,425.678802 234.755936,473.866150 260.792328,520.263672 
z"/>
<path fill="#000000" opacity="1.000000" stroke="none" 
	d="
M566.686890,745.654663 
	C608.475647,734.716675 633.767334,706.550903 649.545898,668.430603 
	C660.610168,641.699890 665.355896,613.610046 666.772156,584.810608 
	C669.976257,519.653687 657.148560,457.089630 636.536011,395.778687 
	C620.552856,348.237762 599.121460,303.202515 573.497437,260.128906 
	C572.419189,258.316467 571.616150,256.873230 568.746033,256.689148 
	C565.077576,256.453857 561.877991,253.524933 560.080322,250.522324 
	C558.168335,247.328720 561.010254,245.938629 564.650330,245.792191 
	C561.613464,241.247223 558.784851,237.158112 556.117981,232.966156 
	C554.635010,230.635178 552.513916,230.396057 550.070557,230.355743 
	C544.920654,230.270752 541.582153,227.409180 540.138855,222.690521 
	C538.766235,218.202820 539.822144,213.994019 543.579346,210.958878 
	C547.485962,207.802933 551.930664,207.812500 556.257751,209.987549 
	C560.849182,212.295456 562.957764,217.660034 560.922607,223.415894 
	C559.843140,226.469009 560.652649,228.328918 562.153503,230.679779 
	C570.214050,243.305145 578.148987,256.010742 586.126526,268.689117 
	C590.377136,267.052216 595.715515,269.038177 598.413879,273.125519 
	C599.340027,274.528442 599.023682,275.568481 598.051880,276.689758 
	C596.915405,278.001190 595.656738,278.484497 594.144226,277.356567 
	C592.606323,276.209656 591.103271,275.015961 588.463501,272.976166 
	C597.171143,289.708496 605.497681,305.039001 612.857849,320.858032 
	C633.149841,364.471069 649.391663,409.485443 659.885254,456.491394 
	C666.600281,486.571533 671.118774,516.911743 672.578430,547.775391 
	C674.470337,587.779785 670.765869,626.973389 657.141541,664.764404 
	C647.548218,691.374207 632.899170,714.750244 609.677246,731.944214 
	C583.784790,751.115540 554.469666,756.925781 523.128357,753.504883 
	C486.320068,749.487244 453.936707,733.813477 423.321899,713.903442 
	C412.306152,706.739502 401.989929,698.611633 391.579773,690.749023 
	C388.158752,692.224182 386.996887,695.904907 383.226898,697.644653 
	C379.098907,689.379028 377.128693,680.483032 373.213715,670.709534 
	C383.569946,672.691040 392.404755,674.381409 401.399658,676.102417 
	C400.939667,680.500610 396.531250,681.758667 395.836182,685.563538 
	C398.376038,688.732727 401.999481,690.850830 405.244934,693.360352 
	C430.570251,712.942871 457.700348,729.321350 488.190186,739.662903 
	C506.957245,746.028259 526.211975,749.492676 546.061707,748.607178 
	C552.843628,748.304688 559.649414,747.447083 566.686890,745.654663 
z"/>
<path fill="#000000" opacity="1.000000" stroke="none" 
	d="
M541.121277,434.033966 
	C540.658569,452.224213 535.440002,468.831940 529.107483,485.166077 
	C528.609070,486.451508 528.367798,488.516022 526.404419,488.230743 
	C524.033325,487.886230 524.577454,485.691010 524.754883,484.181580 
	C525.451416,478.254303 526.231384,472.344910 526.819641,466.396820 
	C528.959778,444.759308 525.401245,423.680481 521.146240,402.657013 
	C518.117798,387.693787 515.395996,372.690338 513.861694,357.491882 
	C513.728699,356.174805 513.616638,354.790771 513.866272,353.510254 
	C515.635376,344.434479 521.542847,337.614136 525.623779,330.179260 
	C528.212585,330.602631 528.327759,331.875397 528.252014,332.999420 
	C526.820801,354.237488 533.031860,374.466248 536.525024,395.038361 
	C538.695740,407.822571 540.136780,420.662445 541.121277,434.033966 
z"/>
<path fill="#000000" opacity="1.000000" stroke="none" 
	d="
M323.698547,424.443909 
	C327.699219,422.747559 331.301697,420.896729 335.471558,421.877350 
	C336.977112,429.741516 335.142456,433.737152 328.775024,436.904053 
	C325.884491,438.341675 323.674713,440.500641 322.459503,443.402435 
	C323.351898,445.697723 325.431458,445.782318 327.027893,446.491425 
	C332.372375,448.865326 337.554382,451.479492 342.134338,455.183990 
	C349.628723,461.245697 350.335754,468.554413 344.029999,475.937805 
	C337.382446,483.721313 328.153015,485.949402 318.667786,487.305084 
	C311.934692,488.267395 305.125244,488.705780 298.344421,489.317841 
	C296.144440,489.516388 294.057129,489.998077 292.268707,491.309784 
	C290.927673,492.293396 289.745331,492.922791 288.403992,491.320679 
	C287.034729,489.685181 286.866425,488.116577 288.229248,486.381378 
	C290.488678,483.504486 293.522217,481.806793 296.929108,480.823730 
	C302.200745,479.302612 307.561157,478.085632 312.819885,476.524109 
	C316.447571,475.446960 320.187073,474.347534 322.327637,470.669159 
	C321.061371,468.591675 318.841492,468.634644 317.127075,467.820190 
	C309.674622,464.279724 305.670532,456.663361 307.056915,448.535095 
	C308.842682,438.065277 314.145538,430.016449 323.698547,424.443909 
z"/>
<path fill="#000000" opacity="1.000000" stroke="none" 
	d="
M512.870117,303.516174 
	C517.110168,301.150299 521.186462,301.256897 525.312134,302.437500 
	C529.147034,303.534943 533.061462,304.457520 536.755859,305.923492 
	C549.161560,310.846069 560.559937,308.028015 571.540710,301.728943 
	C575.815369,299.276825 579.959839,296.597717 584.518127,293.804779 
	C585.598633,296.750336 586.010681,299.395905 584.766724,301.483978 
	C578.234863,312.448059 570.247742,321.937012 557.038452,324.956573 
	C549.867493,326.595856 542.440796,325.741394 535.960205,322.876007 
	C518.057251,314.960297 504.881805,322.918671 492.397644,334.416382 
	C491.327026,335.402405 490.591858,336.854431 488.535370,337.112061 
	C487.254974,334.342438 487.080963,331.534424 488.774719,328.857758 
	C495.052307,318.937225 502.142059,309.757721 512.870117,303.516174 
z"/>
<path fill="#000000" opacity="1.000000" stroke="none" 
	d="
M432.661804,186.255997 
	C428.916779,181.669556 428.664398,177.029053 431.764618,172.597839 
	C434.434631,168.781601 438.306610,167.173950 443.119659,168.235504 
	C448.680878,169.462051 450.747589,173.163712 451.742126,178.460419 
	C452.728882,183.715744 449.950439,186.255249 446.177277,188.431152 
	C441.328003,191.227600 436.912354,190.203079 432.661804,186.255997 
z"/>
<path fill="#000000" opacity="1.000000" stroke="none" 
	d="
M463.984497,632.224609 
	C467.182465,637.023010 467.321442,641.585388 464.124176,645.927979 
	C461.431549,649.585144 457.584930,650.925720 453.156342,649.947021 
	C447.577148,648.714111 445.218842,645.375244 444.272705,638.360474 
	C443.627716,633.578674 447.017212,631.528137 450.192078,629.584900 
	C454.493835,626.951965 459.166473,627.944458 463.984497,632.224609 
z"/>
<path fill="#000000" opacity="1.000000" stroke="none" 
	d="
M374.629425,166.672012 
	C372.464905,167.170471 370.372162,167.418365 371.228149,164.703888 
	C373.760040,156.674728 376.591248,148.739975 379.662140,139.720428 
	C386.840881,146.783463 392.487640,153.726547 398.752411,161.383102 
	C390.558441,164.211441 382.667023,164.874542 374.629425,166.672012 
z"/>
<path fill="#000000" opacity="1.000000" stroke="none" 
	d="
M532.618225,652.484741 
	C537.352844,650.829285 541.719971,649.306396 547.124084,647.421936 
	C546.291260,657.346619 544.254639,666.134460 542.259705,675.809570 
	C534.216858,670.022034 527.612122,664.106934 520.661804,658.004333 
	C524.293640,654.730896 528.597961,654.356812 532.618225,652.484741 
z"/>
<path fill="#000000" opacity="1.000000" stroke="none" 
	d="
M644.056946,314.070679 
	C646.000427,315.865356 647.699158,317.425995 649.306091,319.076050 
	C650.813416,320.623749 650.915710,322.230194 649.239258,323.793396 
	C647.647949,325.277252 646.277710,324.724731 644.958435,323.399323 
	C643.564026,321.998322 642.134827,320.630371 640.775940,319.195801 
	C639.769226,318.132965 638.480408,317.040222 639.621216,315.372345 
	C640.608032,313.929779 641.856506,312.893311 644.056946,314.070679 
z"/>
<path fill="#000000" opacity="1.000000" stroke="none" 
	d="
M542.884399,233.781296 
	C541.584900,236.766373 539.889893,237.563370 537.344238,235.731903 
	C535.474243,234.386536 533.492798,233.195587 531.629578,231.841461 
	C530.339111,230.903595 530.319824,229.655045 531.173828,228.367508 
	C531.931946,227.224457 532.938660,225.931473 534.340576,226.757355 
	C537.483398,228.608902 541.465576,229.463867 542.884399,233.781296 
z"/>
<path fill="#000000" opacity="1.000000" stroke="none" 
	d="
M355.596863,591.181946 
	C357.917084,593.244934 363.385773,593.096985 360.988953,597.515015 
	C358.338287,602.400879 355.493439,597.240906 352.865387,596.399658 
	C351.140045,595.847351 348.277344,595.125793 349.571991,592.014404 
	C350.879547,588.872070 353.090454,589.814026 355.596863,591.181946 
z"/>
<path fill="#000000" opacity="1.000000" stroke="none" 
	d="
M245.887253,519.984619 
	C244.487503,521.857971 243.103119,522.268311 241.467224,520.899902 
	C239.559769,519.304443 237.649872,517.710938 235.775406,516.077148 
	C234.826508,515.250061 234.324554,514.207825 235.038239,512.995056 
	C235.636902,511.977692 236.456924,511.078613 237.698135,510.935028 
	C240.206085,510.644836 245.984451,516.736816 245.887253,519.984619 
z"/>
<path fill="#000000" opacity="1.000000" stroke="none" 
	d="
M161.554626,148.463959 
	C159.080734,149.581192 156.936508,150.488892 154.807648,151.431244 
	C153.152634,152.163849 151.935730,151.798126 151.103531,150.143509 
	C150.219131,148.385010 150.334061,146.870880 152.236328,145.958923 
	C154.183350,145.025528 156.198761,144.230637 158.203934,143.424103 
	C159.612335,142.857605 161.114410,142.258942 162.208176,143.926300 
	C163.179550,145.407135 163.758621,146.952530 161.554626,148.463959 
z"/>
<path fill="#000000" opacity="1.000000" stroke="none" 
	d="
M150.239349,418.130890 
	C148.416595,422.422974 146.263199,422.404572 143.853546,418.918457 
	C142.912445,417.556946 141.971970,416.194489 141.001480,414.853973 
	C139.803665,413.199432 139.301117,411.659546 141.284332,410.154724 
	C143.277603,408.642273 144.628418,409.471985 145.797913,411.209564 
	C147.273041,413.401276 148.728088,415.606506 150.239349,418.130890 
z"/>
<path fill="#000000" opacity="1.000000" stroke="none" 
	d="
M299.695221,563.303528 
	C296.158447,562.629272 294.027740,560.124023 291.393524,558.437256 
	C289.813110,557.425232 289.702911,556.146423 290.797943,554.642151 
	C291.798187,553.268066 292.899658,552.505859 294.556488,553.582520 
	C296.229309,554.669617 297.869781,555.810730 299.580658,556.834167 
	C302.844360,558.786377 303.367798,560.863647 299.695221,563.303528 
z"/>
<path fill="#000000" opacity="1.000000" stroke="none" 
	d="
M599.820801,669.011169 
	C596.697693,668.340088 591.823303,670.848022 592.096985,665.799805 
	C592.351990,661.096619 597.054321,663.469971 599.828064,663.108887 
	C601.679504,662.867920 604.054077,662.791504 604.229370,665.786255 
	C604.399902,668.698486 602.367249,668.888367 599.820801,669.011169 
z"/>
<path fill="#000000" opacity="1.000000" stroke="none" 
	d="
M506.624268,209.321701 
	C508.646881,210.511826 510.397278,211.455673 512.065857,212.526932 
	C513.588074,213.504181 513.739075,214.874710 512.845520,216.396255 
	C511.982941,217.865143 510.795715,218.618011 509.140289,217.753860 
	C507.235229,216.759384 505.365570,215.687683 503.539062,214.555069 
	C501.993317,213.596573 500.293427,212.689331 501.483551,210.287506 
	C502.680603,207.871674 504.298370,207.812546 506.624268,209.321701 
z"/>
<path fill="#000000" opacity="1.000000" stroke="none" 
	d="
M471.545044,196.877441 
	C470.023834,194.964554 470.759277,193.470901 471.937744,192.233810 
	C473.250977,190.855240 474.683624,191.763794 475.996277,192.436951 
	C477.753204,193.337921 479.478577,194.300278 481.222748,195.226395 
	C482.976044,196.157364 483.535583,197.404984 482.497437,199.263824 
	C481.489838,201.068008 480.186432,201.399475 478.399445,200.454437 
	C476.220367,199.302048 474.006195,198.215973 471.545044,196.877441 
z"/>
<path fill="#000000" opacity="1.000000" stroke="none" 
	d="
M325.491211,580.610962 
	C323.899872,579.665283 322.610718,578.932251 321.337311,578.172791 
	C319.620636,577.149048 318.437134,575.980835 319.809601,573.805725 
	C321.038147,571.858765 322.505005,571.598816 324.366211,572.818970 
	C325.881622,573.812439 327.402008,574.798767 328.934509,575.765564 
	C330.720978,576.892517 332.288300,578.094666 330.817657,580.501343 
	C329.299072,582.986511 327.549774,581.947876 325.491211,580.610962 
z"/>
<path fill="#000000" opacity="1.000000" stroke="none" 
	d="
M698.227783,641.226379 
	C700.413696,640.407104 702.110779,638.099304 704.281433,640.303467 
	C705.230774,641.267517 706.075012,642.794983 704.951843,643.824097 
	C702.277527,646.274414 699.154724,648.252014 695.543396,648.906494 
	C694.177490,649.154114 693.304260,647.420410 693.148865,646.154480 
	C692.724731,642.700378 696.174988,642.861145 698.227783,641.226379 
z"/>
<path fill="#000000" opacity="1.000000" stroke="none" 
	d="
M162.857239,437.658203 
	C166.017349,437.509613 172.315186,443.401672 171.934311,445.794159 
	C171.673462,447.432587 170.462280,448.499176 168.844589,448.576813 
	C165.713669,448.727081 161.146271,440.826202 162.857239,437.658203 
z"/>
<path fill="#000000" opacity="1.000000" stroke="none" 
	d="
M126.715134,382.376465 
	C128.007309,384.543488 129.145752,386.386475 130.179230,388.286530 
	C131.052109,389.891327 130.525284,391.134094 129.000366,392.067352 
	C127.441849,393.021149 126.132584,392.814240 125.151772,391.276306 
	C123.899033,389.312042 122.713058,387.304810 121.518372,385.304077 
	C120.666412,383.877380 120.461449,382.530823 121.977753,381.337158 
	C123.789482,379.910980 125.296303,380.031342 126.715134,382.376465 
z"/>
<path fill="#000000" opacity="1.000000" stroke="none" 
	d="
M666.206909,345.810181 
	C665.208496,344.666077 664.422974,343.816711 663.711182,342.909393 
	C662.841919,341.801208 663.107361,340.743103 664.050842,339.829437 
	C664.908813,338.998535 666.057739,338.144409 667.127014,338.848145 
	C670.040283,340.765442 672.458252,343.263153 673.939209,346.464417 
	C674.509399,347.696869 673.550171,348.743195 672.535339,349.328125 
	C668.847290,351.453705 668.369812,347.385193 666.206909,345.810181 
z"/>
<path fill="#000000" opacity="1.000000" stroke="none" 
	d="
M99.009163,191.152924 
	C100.395668,189.050812 101.571617,187.254089 102.779388,185.479034 
	C103.940536,183.772491 105.329979,183.638489 106.992676,184.830521 
	C108.682816,186.042236 108.855034,187.394775 107.669937,189.046478 
	C106.418381,190.790817 105.203705,192.561844 103.987503,194.331268 
	C103.074348,195.659790 102.035080,196.609497 100.284775,195.762573 
	C98.345428,194.824158 97.404999,193.550217 99.009163,191.152924 
z"/>
<path fill="#000000" opacity="1.000000" stroke="none" 
	d="
M418.837463,628.328979 
	C416.785034,627.532104 415.079071,626.902954 413.415710,626.176392 
	C411.758728,625.452637 411.313934,624.189819 412.036652,622.529053 
	C412.705048,620.993225 413.735199,620.017395 415.513092,620.672974 
	C417.524994,621.414856 419.500488,622.259216 421.473145,623.102600 
	C423.194244,623.838440 424.981598,624.612183 424.042511,627.054382 
	C423.063995,629.599304 421.241425,629.455688 418.837463,628.328979 
z"/>
<path fill="#000000" opacity="1.000000" stroke="none" 
	d="
M733.756104,432.900940 
	C731.303223,436.501434 729.293579,436.146332 727.557068,432.568939 
	C726.690308,430.783386 725.625977,429.094818 724.699097,427.337036 
	C723.822083,425.673828 724.465454,424.529480 725.996948,423.653748 
	C727.575562,422.751099 728.879517,422.915314 729.746033,424.566498 
	C731.129333,427.202515 732.425354,429.884338 733.756104,432.900940 
z"/>
<path fill="#000000" opacity="1.000000" stroke="none" 
	d="
M625.148010,296.505432 
	C624.485046,300.837860 622.684998,302.005920 619.364136,298.887054 
	C617.928528,297.538788 616.470154,296.214539 615.015564,294.886597 
	C613.467407,293.473206 613.649902,292.065369 614.989990,290.631104 
	C616.254211,289.278076 617.613281,289.363861 618.890015,290.500244 
	C620.971863,292.353241 622.972534,294.297394 625.148010,296.505432 
z"/>
<path fill="#000000" opacity="1.000000" stroke="none" 
	d="
M722.682739,623.639282 
	C724.475952,621.879272 726.022095,620.372742 727.565308,618.863281 
	C729.151123,617.312195 730.503601,617.890930 731.832886,619.270447 
	C733.187988,620.676758 732.825806,621.935913 731.608826,623.158081 
	C730.085571,624.687561 728.572876,626.228882 727.009766,627.716980 
	C725.895752,628.777527 724.677429,629.781799 723.110046,628.485046 
	C721.536743,627.183350 720.628052,625.720154 722.682739,623.639282 
z"/>
<path fill="#000000" opacity="1.000000" stroke="none" 
	d="
M383.004272,605.984131 
	C385.920227,607.182312 388.476593,608.330627 390.989380,609.567322 
	C392.629730,610.374634 392.920410,611.712708 392.122650,613.299011 
	C391.359406,614.816650 390.232819,615.610901 388.511902,614.818237 
	C386.562714,613.920349 384.618195,613.006775 382.713348,612.019531 
	C378.977417,610.083191 379.311554,608.036255 383.004272,605.984131 
z"/>
<path fill="#000000" opacity="1.000000" stroke="none" 
	d="
M192.200409,466.703644 
	C193.220291,467.811981 194.045212,468.624939 194.750977,469.530701 
	C195.885910,470.987335 195.426743,472.265747 194.190414,473.434052 
	C192.848007,474.702576 191.586258,474.612122 190.330048,473.322632 
	C188.837067,471.790070 187.329239,470.271973 185.836319,468.739349 
	C184.472305,467.339020 183.498764,465.928833 185.279556,464.095734 
	C187.234818,462.083069 188.752533,463.024261 190.244873,464.666412 
	C190.798126,465.275269 191.382050,465.856232 192.200409,466.703644 
z"/>
<path fill="#000000" opacity="1.000000" stroke="none" 
	d="
M210.039032,492.800385 
	C208.250061,490.884644 208.993561,489.490540 210.384674,488.305054 
	C211.833740,487.070190 213.147263,487.758881 214.340240,488.845703 
	C215.929825,490.293823 217.512085,491.750031 219.097656,493.202576 
	C220.592758,494.572205 220.688858,495.938507 219.257629,497.472900 
	C217.781784,499.055115 216.415512,498.822327 214.989227,497.479370 
	C213.423660,496.005310 211.854309,494.535248 210.039032,492.800385 
z"/>
<path fill="#000000" opacity="1.000000" stroke="none" 
	d="
M131.756317,160.527039 
	C132.798904,163.873734 126.717232,170.820068 123.762100,169.989349 
	C122.147148,169.535385 120.786652,168.320770 121.261742,166.288483 
	C121.833633,163.842087 128.615891,159.934372 131.756317,160.527039 
z"/>
<path fill="#000000" opacity="1.000000" stroke="none" 
	d="
M104.385468,352.081238 
	C107.197479,348.670441 109.143143,349.533020 110.648720,352.925049 
	C111.380791,354.574371 112.264572,356.156006 113.010689,357.799591 
	C113.809128,359.558411 113.528107,360.965118 111.583382,361.812378 
	C109.905907,362.543213 108.696739,362.040283 107.895874,360.505005 
	C106.533836,357.893799 104.858147,355.416931 104.385468,352.081238 
z"/>
<path fill="#000000" opacity="1.000000" stroke="none" 
	d="
M670.115234,653.281128 
	C672.778564,653.135132 673.181152,654.798767 673.315369,656.502991 
	C673.469666,658.463135 671.891724,658.898132 670.438538,659.328674 
	C668.373047,659.940613 666.315369,660.591675 664.222778,661.094482 
	C662.535645,661.500000 661.253906,660.902954 660.864746,659.079041 
	C660.520508,657.465515 660.826050,656.037476 662.598877,655.468811 
	C664.962097,654.710815 667.361816,654.066895 670.115234,653.281128 
z"/>
<path fill="#000000" opacity="1.000000" stroke="none" 
	d="
M746.698242,591.098022 
	C748.458923,588.836182 750.110413,589.539429 751.611023,590.832825 
	C752.943604,591.981262 752.109436,593.272034 751.504822,594.450134 
	C750.517212,596.374390 749.518860,598.294678 748.461914,600.181213 
	C747.601440,601.717285 746.394226,602.265991 744.729370,601.288513 
	C743.252686,600.421570 742.454102,599.291016 743.295227,597.591431 
	C744.328064,595.504639 745.448914,593.461304 746.698242,591.098022 
z"/>
<path fill="#000000" opacity="1.000000" stroke="none" 
	d="
M229.309814,129.103104 
	C231.519562,132.392029 231.009735,134.200699 227.034836,134.367188 
	C225.082397,134.448959 223.148087,134.908051 221.198975,135.141129 
	C219.439590,135.351501 218.381943,134.511307 218.046509,132.792618 
	C217.706573,131.050858 218.421280,129.988861 220.142120,129.494156 
	C223.035156,128.662476 225.961716,128.582504 229.309814,129.103104 
z"/>
<path fill="#000000" opacity="1.000000" stroke="none" 
	d="
M758.210083,556.639832 
	C761.336670,556.459534 762.645874,557.620239 762.040771,560.474487 
	C761.562256,562.731445 761.158752,565.008301 760.573425,567.237305 
	C760.182556,568.726013 759.036377,569.349487 757.513245,569.027161 
	C755.886597,568.683044 754.588623,567.775879 755.054138,565.966370 
	C755.856262,562.848206 755.322876,559.308105 758.210083,556.639832 
z"/>
<path fill="#000000" opacity="1.000000" stroke="none" 
	d="
M752.719604,497.126709 
	C752.143616,494.819305 751.619385,492.914764 751.121338,491.003326 
	C750.664612,489.250763 751.272217,488.123871 753.096436,487.727020 
	C754.738098,487.369904 756.111694,487.649017 756.619141,489.458313 
	C757.239563,491.670319 757.810303,493.902100 758.261536,496.153595 
	C758.561646,497.650940 758.550842,499.217529 756.731812,499.857819 
	C754.551025,500.625427 753.240356,499.758911 752.719604,497.126709 
z"/>
<path fill="#000000" opacity="1.000000" stroke="none" 
	d="
M707.945007,399.957825 
	C706.778809,397.839447 704.919983,396.012939 707.704407,394.180725 
	C710.495667,392.344025 711.480347,394.739197 712.688110,396.416718 
	C713.649414,397.751862 714.464478,399.191589 715.360901,400.574249 
	C716.442505,402.242401 716.333374,403.654358 714.536438,404.755371 
	C712.967651,405.716583 711.745239,405.324066 710.734253,403.868286 
	C709.888367,402.650238 709.000610,401.461243 707.945007,399.957825 
z"/>
<path fill="#000000" opacity="1.000000" stroke="none" 
	d="
M88.698074,227.547699 
	C85.237907,227.564514 84.172592,225.982178 85.015182,223.065750 
	C85.614967,220.989731 86.192123,218.900742 86.935295,216.874725 
	C87.472328,215.410645 88.595169,214.991943 90.161247,215.470413 
	C91.838783,215.982971 92.984665,216.912613 92.381439,218.694565 
	C91.383530,221.642380 91.172775,224.906647 88.698074,227.547699 
z"/>
<path fill="#000000" opacity="1.000000" stroke="none" 
	d="
M743.128540,454.631470 
	C746.506836,456.879608 746.724182,460.569153 748.031311,463.677826 
	C748.531982,464.868530 747.719482,465.868317 746.519104,466.406891 
	C745.602173,466.818268 744.436035,467.402954 743.774658,466.518677 
	C741.594604,463.603516 740.019714,460.305847 739.799988,456.650604 
	C739.712158,455.189850 741.433289,454.800629 743.128540,454.631470 
z"/>
<path fill="#000000" opacity="1.000000" stroke="none" 
	d="
M99.468201,327.154602 
	C96.697212,331.099182 95.330139,331.152740 93.714684,327.579559 
	C92.828018,325.618347 92.262321,323.510345 91.577812,321.459900 
	C90.976494,319.658630 91.792152,318.592621 93.456581,318.023193 
	C95.179741,317.433685 96.418076,318.008179 97.029404,319.703278 
	C97.875206,322.048523 98.635155,324.424744 99.468201,327.154602 
z"/>
<path fill="#000000" opacity="1.000000" stroke="none" 
	d="
M324.867920,143.246948 
	C321.990326,142.581940 321.304626,140.988266 322.122284,138.722473 
	C322.924133,136.500473 324.650696,137.188812 326.260132,137.550674 
	C328.181244,137.982574 330.108795,138.389526 332.042236,138.762054 
	C333.892975,139.118668 334.400146,140.319748 334.200195,142.012665 
	C333.979462,143.881592 332.788635,144.543335 331.088226,144.320312 
	C329.139648,144.064774 327.211060,143.656631 324.867920,143.246948 
z"/>
<path fill="#000000" opacity="1.000000" stroke="none" 
	d="
M83.684402,284.776184 
	C86.569420,283.261902 88.091599,284.067535 88.647346,286.828674 
	C89.068787,288.922485 89.487289,291.016907 89.921440,293.108124 
	C90.282158,294.845581 89.771362,295.971313 87.891373,296.343689 
	C86.234314,296.671967 84.903473,296.504852 84.493912,294.571899 
	C83.826904,291.423798 82.347275,288.368866 83.684402,284.776184 
z"/>
<path fill="#000000" opacity="1.000000" stroke="none" 
	d="
M365.874512,153.119659 
	C362.921173,152.529068 360.377899,151.869888 357.831604,151.222672 
	C355.776398,150.700256 355.332550,149.319534 355.793182,147.445831 
	C356.267456,145.516937 357.697693,145.340942 359.267548,145.679260 
	C361.193024,146.094208 363.103851,146.597351 364.992584,147.158112 
	C368.933411,148.328171 369.255951,150.345352 365.874512,153.119659 
z"/>
<path fill="#000000" opacity="1.000000" stroke="none" 
	d="
M687.884583,371.988037 
	C686.529358,369.936157 684.551514,368.173920 687.211731,366.202759 
	C689.855225,364.243958 691.013977,366.612549 692.349426,368.218750 
	C693.195190,369.235962 693.942993,370.334137 694.775696,371.362732 
	C696.050537,372.937317 696.716125,374.434692 694.781433,376.054626 
	C692.743408,377.761017 691.501282,376.516754 690.275635,374.998932 
	C689.547852,374.097595 688.824890,373.192413 687.884583,371.988037 
z"/>
<path fill="#000000" opacity="1.000000" stroke="none" 
	d="
M569.458740,665.663086 
	C565.685486,668.640259 561.896301,667.273926 558.478149,665.979919 
	C555.827209,664.976318 556.909119,661.755676 558.557312,661.448181 
	C562.143860,660.778931 566.029541,660.994629 569.403748,662.951233 
	C569.795044,663.178162 569.566345,664.474304 569.458740,665.663086 
z"/>
<path fill="#000000" opacity="1.000000" stroke="none" 
	d="
M757.602295,527.487061 
	C757.440735,524.915466 756.055542,522.121521 759.859802,521.832764 
	C763.377014,521.565918 763.072083,524.322937 763.269470,526.586426 
	C763.297913,526.913208 763.359314,527.261108 763.283630,527.569275 
	C762.704773,529.927673 765.005005,534.004395 760.428528,534.033081 
	C756.214172,534.059448 758.254150,530.139465 757.602295,527.487061 
z"/>
<path fill="#000000" opacity="1.000000" stroke="none" 
	d="
M86.280975,256.928589 
	C86.149925,259.471924 86.575256,262.089142 83.365952,262.015991 
	C80.100700,261.941589 80.839439,259.215210 80.696228,257.214630 
	C80.602776,255.909042 80.651474,254.589996 80.693459,253.278824 
	C80.750702,251.491241 80.484192,249.469360 83.270142,249.502731 
	C86.046234,249.536011 86.362526,251.356155 86.288445,253.517258 
	C86.254745,254.500427 86.283272,255.485703 86.280975,256.928589 
z"/>
<path fill="#000000" opacity="1.000000" stroke="none" 
	d="
M290.149231,137.118042 
	C287.694061,136.321838 287.457855,134.798141 288.105347,133.074570 
	C288.692139,131.512573 290.229462,131.659958 291.482025,131.755005 
	C293.594940,131.915359 295.689972,132.313431 297.791901,132.615891 
	C299.587463,132.874268 300.373932,133.884094 300.043457,135.692932 
	C299.724976,137.436005 298.661377,138.244858 296.907959,138.039749 
	C294.795105,137.792557 292.689575,137.482758 290.149231,137.118042 
z"/>
<path fill="#000000" opacity="1.000000" stroke="none" 
	d="
M627.059387,665.853394 
	C626.692871,663.625061 626.876465,661.927063 629.155273,661.808472 
	C632.219849,661.649109 635.401855,659.390930 638.281250,661.512146 
	C639.836548,662.657837 639.953735,665.438232 637.708984,665.872620 
	C634.317566,666.528992 630.773926,668.676147 627.059387,665.853394 
z"/>
<path fill="#000000" opacity="1.000000" stroke="none" 
	d="
M258.085144,128.677902 
	C260.920593,129.307648 265.163605,127.095467 265.014282,131.632324 
	C264.870361,136.003433 260.737274,133.747849 258.328705,134.298462 
	C257.704681,134.441116 257.011353,134.297852 256.351166,134.261536 
	C254.576004,134.163910 252.921402,133.756012 252.933304,131.556519 
	C252.951355,128.218323 255.576126,128.864090 258.085144,128.677902 
z"/>
</svg>